<?xml version="1.0" encoding="utf-8"?>
<!-- Generator: Adobe Illustrator 22.0.1, SVG Export Plug-In . SVG Version: 6.00 Build 0)  -->
<svg version="1.1"
	 id="svg6490" xmlns:cc="http://creativecommons.org/ns#" xmlns:dc="http://purl.org/dc/elements/1.1/" xmlns:rdf="http://www.w3.org/1999/02/22-rdf-syntax-ns#" xmlns:svg="http://www.w3.org/2000/svg"
	 xmlns="http://www.w3.org/2000/svg" xmlns:xlink="http://www.w3.org/1999/xlink" x="0px" y="0px" viewBox="0 0 300 84.8"
	 style="enable-background:new 0 0 300 84.8;" xml:space="preserve">
<style type="text/css">
	.st0{clip-path:url(#SVGID_2_);}
</style>
<path id="path298" d="M67.1,39.9c-0.3,6.5-4.9,15.5-13.7,26.8c-9.1,11.9-16.8,17.8-23.2,17.8c-3.9,0-7.2-3.6-9.9-10.8
	c-1.8-6.6-3.6-13.2-5.4-19.9c-2-7.2-4.2-10.8-6.5-10.8c-0.5,0-2.3,1.1-5.3,3.2L0,42.1c3.3-2.9,6.6-5.8,9.8-8.7
	c4.4-3.8,7.7-5.8,9.9-6c5.2-0.5,8.4,3.1,9.6,10.7c1.3,8.2,2.2,13.4,2.7,15.4c1.5,6.8,3.2,10.3,5,10.3c1.4,0,3.5-2.2,6.3-6.7
	c2.8-4.4,4.3-7.8,4.5-10.1c0.4-3.8-1.1-5.8-4.5-5.8c-1.6,0-3.3,0.4-5,1.1c3.3-10.8,9.6-16.1,18.9-15.8
	C64.2,26.7,67.5,31.2,67.1,39.9"/>
<path id="path302" d="M95.4,7.5c-0.1,2.5-1.4,4.9-3.8,7.2c-2.7,2.6-5.9,3.9-9.6,3.9c-5.7,0-8.5-2.5-8.3-7.5c0.1-2.6,1.6-5.1,4.6-7.5
	c3-2.4,6.3-3.6,9.9-3.6c2.1,0,3.9,0.8,5.3,2.5C94.8,4.1,95.5,5.8,95.4,7.5z M108.5,61.1c-2.8,5.3-6.7,10.1-11.6,14.4
	c-6.7,5.8-13.5,8.7-20.2,8.7c-3.1,0-5.5-1-7.2-3c-1.7-2-2.4-4.6-2.3-7.8c0.1-3.3,1.1-8.4,3.1-15.4c2-6.9,2.9-10.6,2.9-11.1
	c0-2.6-0.9-3.9-2.7-3.9c-0.6,0-2.3,1.1-5.1,3.2l-3.5-4.1c3.2-2.9,6.4-5.8,9.6-8.7c4.3-3.8,7.5-5.8,9.6-6c3.3-0.3,5.7,0.7,7.3,2.9
	c1.6,2.3,2.1,5.2,1.7,8.8c-1.3,6.1-2.7,13.9-4.2,23.3c-0.1,4.3,1.5,6.5,4.7,6.5c1.4,0,3.9-1.5,7.5-4.5c3-2.5,5.5-4.8,7.4-7
	L108.5,61.1"/>
<path id="path306" d="M202.6,61.1c-2.8,5.3-6.7,10.1-11.6,14.4c-6.7,5.8-13.5,8.7-20.2,8.7c-6.5,0-9.7-3.6-9.5-10.8
	c0.1-3.2,0.7-7.1,1.9-11.6c1.2-4.5,1.8-8,1.9-10.5c0.1-3.8-1.1-5.7-3.5-5.7c-2.6,0-5.7,3.1-9.4,9.3c-3.8,6.5-5.9,12.9-6.2,19
	c-0.2,4.3,0.2,7.6,1.3,9.9c-7,0.2-11.9-1-14.7-3.5c-2.5-2.2-3.7-5.9-3.5-11c0.1-3.2,0.6-6.4,1.5-9.6c0.9-3.2,1.4-6.1,1.5-8.6
	c0.2-3.7-1.2-5.6-4.1-5.6c-2.5,0-5.2,2.9-8.1,8.6c-2.9,5.7-4.5,11.7-4.8,17.9c-0.2,5.6,0.2,9.5,1.1,11.8c-6.9,0.2-11.8-1.3-14.7-4.4
	c-2.4-2.6-3.5-6.6-3.3-11.9c0.1-2.6,0.6-6.2,1.4-10.9c0.8-4.7,1.3-8.3,1.4-10.9c0.2-1.8-0.3-2.7-1.4-2.7c-0.6,0-2.3,1-5.1,3.1
	l-3.6-4.1c0.5-0.4,3.7-3.3,9.5-8.7c4.2-3.9,7.1-5.9,8.6-6c2.6-0.2,4.7,0.9,6.3,3.2c1.6,2.4,2.4,5.1,2.4,8.2c0,1-0.1,2-0.3,2.9
	c1.5-2.3,3.3-4.3,5.3-6c4.6-4,9.8-6.3,15.5-6.8c4.9-0.4,8.4,0.8,10.5,3.5c1.7,2.2,2.5,5.4,2.4,9.5c0.7-0.6,1.5-1.3,2.3-2
	c2.3-2.7,4.6-4.9,6.8-6.5c3.7-2.7,7.6-4.2,11.6-4.5c4.8-0.4,8.3,0.7,10.4,3.5c1.8,2.2,2.6,5.4,2.4,9.5c-0.1,2.8-0.8,6.9-2,12.2
	c-1.3,5.4-1.9,8.4-1.9,9.2c-0.1,2.1,0.1,3.6,0.6,4.4c0.5,0.8,1.7,1.2,3.6,1.2c1.4,0,3.9-1.5,7.5-4.5c3-2.5,5.5-4.8,7.4-7L202.6,61.1
	"/>
<path id="path310" d="M224.9,45.2c0.1-2.7-1-4-3.3-4c-3,0-6.1,2.1-9.2,6.2c-3.1,4.1-4.7,8.1-4.8,11.9c-0.1,0-0.1,0.7,0,2
	c4.9-1.8,9.2-4.5,12.8-8.2C223.3,49.8,224.8,47.2,224.9,45.2z M259.1,60.9c-2.9,4.8-8.6,9.6-17.2,14.4c-10.6,6.1-21.4,9.2-32.4,9.2
	c-8.1,0-14-2.7-17.5-8.1c-2.5-3.7-3.7-8.1-3.6-13.3c0.1-8.1,3.7-15.9,10.9-23.2c7.8-8,17.1-12.1,27.7-12.1c9.8,0,15.1,4,15.7,12
	c0.4,5.1-2.4,10.4-8.4,15.8c-6.4,5.9-14.5,9.7-24.3,11.3c1.8,2.5,4.5,3.8,8.1,3.8c7.2,0,15.1-1.8,23.7-5.5c6.1-2.6,11-5.3,14.5-8.1
	L259.1,60.9"/>
<g>
	<defs>
		<rect id="SVGID_1_" x="0" y="0" width="300" height="84.8"/>
	</defs>
	<clipPath id="SVGID_2_">
		<use xlink:href="#SVGID_1_"  style="overflow:visible;"/>
	</clipPath>
	<path id="path322" class="st0" d="M282.9,50.3c0.1-2.7-0.3-5.2-1.1-7.5c-0.9-2.3-2.1-3.4-3.7-3.4c-5.1,0-9.3,2.8-12.7,8.3
		c-2.8,4.5-4.3,9.4-4.5,14.5c-0.1,2.5,0.3,4.7,1.4,6.6c1.1,2.2,2.7,3.3,4.7,3.3c4.5,0,8.4-2.7,11.6-8
		C281.3,59.7,282.7,55.1,282.9,50.3z M300,50.8c-0.4,9.2-3.8,17.2-10.2,23.9s-14.4,10.1-24,10.1c-7.9,0-14-2.6-18.1-7.7
		c-3-3.8-4.7-8.6-5-14.3c-0.5-8.6,2.6-16.6,9.3-23.8c7.2-8,16.3-12,27.3-12c7,0,12.4,2.4,16,7.1C298.7,38.4,300.3,44,300,50.8"/>
</g>
</svg>
