<?xml version="1.0" encoding="UTF-8" standalone="no"?>
<!-- Created with Inkscape (http://www.inkscape.org/) -->

<svg
   xmlns:dc="http://purl.org/dc/elements/1.1/"
   xmlns:cc="http://creativecommons.org/ns#"
   xmlns:rdf="http://www.w3.org/1999/02/22-rdf-syntax-ns#"
   xmlns:svg="http://www.w3.org/2000/svg"
   xmlns="http://www.w3.org/2000/svg"
   xmlns:sodipodi="http://sodipodi.sourceforge.net/DTD/sodipodi-0.dtd"
   xmlns:inkscape="http://www.inkscape.org/namespaces/inkscape"
   width="332.29498"
   height="79.542999"
   viewBox="0 0 87.919715 21.04575"
   version="1.1"
   id="svg19059"
   inkscape:version="0.92.0 r15299"
   sodipodi:docname="rutube2.svg">
  <defs
     id="defs19053" />
  <sodipodi:namedview
     id="base"
     pagecolor="#ffffff"
     bordercolor="#666666"
     borderopacity="1.0"
     inkscape:pageopacity="0.0"
     inkscape:pageshadow="2"
     inkscape:zoom="0.35"
     inkscape:cx="460.86178"
     inkscape:cy="435.91437"
     inkscape:document-units="mm"
     inkscape:current-layer="layer1"
     showgrid="false"
     fit-margin-top="0"
     fit-margin-left="0"
     fit-margin-right="0"
     fit-margin-bottom="0"
     units="px"
     inkscape:window-width="1280"
     inkscape:window-height="744"
     inkscape:window-x="-4"
     inkscape:window-y="-4"
     inkscape:window-maximized="1" />
  <metadata
     id="metadata19056">
    <rdf:RDF>
      <cc:Work
         rdf:about="">
        <dc:format>image/svg+xml</dc:format>
        <dc:type
           rdf:resource="http://purl.org/dc/dcmitype/StillImage" />
        <dc:title></dc:title>
      </cc:Work>
    </rdf:RDF>
  </metadata>
  <g
     inkscape:label="Layer 1"
     inkscape:groupmode="layer"
     id="layer1"
     transform="translate(109.46313,-243.12326)">
    <g
       id="g19075"
       transform="matrix(0.26458333,0,0,0.26458333,-125.54689,224.42648)">
	<path
   id="path19061"
   d="M 210.573,90.729 V 71.956 l -17.66,2.289 v 16.483 h -6.873 v 15.535 h 6.873 c 0,11.494 0,33.606 0,42.335 h 17.66 v -42.335 h 12.804 V 90.729 Z"
   inkscape:connector-curvature="0" />

	<path
   id="path19063"
   d="m 114.055,118.592 c 5.38,-4.339 8.832,-10.277 8.832,-17.73 V 97.62 c 0,-13.087 -10.608,-22.703 -23.689,-22.703 l -37.409,-0.146 0.022,73.439 17.67,0.139 v -24.926 h 18.162 l 11.839,24.926 h 20.68 z m -9.223,-18.621 c 0,5.213 -4.227,8.17 -9.438,8.17 H 79.481 V 90.504 h 15.913 c 5.211,0 9.438,3.661 9.438,8.874 z"
   inkscape:connector-curvature="0" />

	<path
   id="path19065"
   d="m 312.556,90.422 h -9.344 V 71.665 l -17.277,2.288 -0.003,74.396 h 26.624 c 13.085,0 23.69,-10.046 23.69,-23.127 v -11.108 c 0,-13.085 -10.605,-23.692 -23.69,-23.692 z m 6.761,33.312 c 0,5.51 -3.719,8.779 -9.228,8.779 h -6.821 V 106.27 h 6.821 c 5.509,0 9.228,3.272 9.228,8.781 z"
   inkscape:connector-curvature="0" />

	<path
   id="path19067"
   d="m 261.144,90.729 v 33.42 c 0,5.509 -2.004,9.23 -7.513,9.23 h -0.274 c -5.506,0 -7.514,-3.722 -7.514,-9.23 v -33.42 h -17.431 v 34.695 c 0,13.085 5.726,23.694 23.129,23.694 h 3.343 c 18.329,0 23.695,-10.609 23.695,-23.694 V 90.729 Z"
   inkscape:connector-curvature="0" />

	<path
   id="path19069"
   d="m 162.893,90.729 v 33.42 c 0,5.509 -2.005,9.23 -7.514,9.23 h -0.273 c -5.506,0 -7.513,-3.722 -7.513,-9.23 v -33.42 h -17.432 v 34.695 c 0,13.085 5.724,23.694 23.126,23.694 h 3.346 c 18.324,0 23.693,-10.609 23.693,-23.694 V 90.729 Z"
   inkscape:connector-curvature="0" />

	<g
   id="g19073">
		<path
   id="path19071"
   d="m 380.466,128.947 c 0,0 -5.101,6.251 -14.066,5.55 -5.587,-0.437 -8.898,-3.274 -8.898,-8.782 v -1.92 h 34.197 v -7.431 -0.385 -2.101 c 0,-12.762 -9.351,-23.955 -25.254,-23.955 -15.9,0 -25.273,10.631 -25.273,23.394 v 2.662 0.385 8.883 c 0,12.767 9.354,23.961 25.254,23.961 17.975,0 25.658,-12.536 25.658,-12.536 z m -22.965,-18.334 c 0,-5.379 3.429,-8.618 8.532,-8.767 h 0.439 c 5.313,0 8.898,3.272 8.898,8.779 v 0.485 H 357.5 v -0.497 z"
   inkscape:connector-curvature="0" />

	</g>

</g>
  </g>
</svg>
